<?xml version="1.0" encoding="iso-8859-1"?>
<!-- Generator: Adobe Illustrator 19.0.0, SVG Export Plug-In . SVG Version: 6.00 Build 0)  -->
<svg version="1.1" id="Layer_1" xmlns="http://www.w3.org/2000/svg" xmlns:xlink="http://www.w3.org/1999/xlink" x="0px" y="0px"
	 viewBox="0 0 196 196" style="enable-background:new 0 0 196 196;" xml:space="preserve">
<g>
	<g>
		<g>
			<path d="M98,0C43.962,0,0,43.962,0,98c0,54.038,43.962,98,98,98s98-43.962,98-98C196,43.962,152.038,0,98,0z M98,189
				c-50.177,0-91-40.823-91-91S47.823,7,98,7s91,40.823,91,91S148.177,189,98,189z"/>
			<path d="M145.394,45.948L33.606,98.528c-1.03,0.485-1.694,1.509-1.89,2.632c-0.196,1.123,0.234,2.34,1.041,3.144
				c0.656,0.656,1.547,1.025,2.474,1.025H90.67v55.439c0,0.928,0.504,1.953,1.16,2.61c0.661,0.663,1.555,1.025,2.475,1.025
				c0.2,0,0.401-0.017,0.602-0.053c1.123-0.195,2.08-0.926,2.565-1.957l52.579-111.79c0.629-1.336,0.352-2.922-0.692-3.965
				C148.314,45.599,146.733,45.324,145.394,45.948z M97.67,145.527V101.83c0-1.933-1.567-3.5-3.5-3.5H50.473l89.108-41.913
				L97.67,145.527z"/>
		</g>
	</g>
</g>
<g>
</g>
<g>
</g>
<g>
</g>
<g>
</g>
<g>
</g>
<g>
</g>
<g>
</g>
<g>
</g>
<g>
</g>
<g>
</g>
<g>
</g>
<g>
</g>
<g>
</g>
<g>
</g>
<g>
</g>
</svg>
