<svg width="28" height="18" viewBox="0 0 28 18" fill="none" xmlns="http://www.w3.org/2000/svg">
<path d="M1.35712 4.01953C1.35712 2.32681 2.62769 0.95459 4.19502 0.95459H17.6751C19.2424 0.95459 20.513 2.32681 20.513 4.01953V13.9806C20.513 15.6733 19.2424 17.0455 17.6751 17.0455H4.19502C2.62769 17.0455 1.35712 15.6733 1.35712 13.9806V4.01953Z" stroke="#23004C" stroke-width="1.5"/>
<path d="M20.5129 6.70129L26.6428 2.87012V15.1299L20.5129 11.6818" stroke="#23004C" stroke-width="1.5" stroke-linecap="round" stroke-linejoin="round"/>
<path d="M15.9156 13.198C16.3298 13.198 16.6656 12.8622 16.6656 12.448C16.6656 12.0338 16.3298 11.698 15.9156 11.698V13.198ZM5.95453 11.698C5.54032 11.698 5.20453 12.0338 5.20453 12.448C5.20453 12.8622 5.54032 13.198 5.95453 13.198V11.698ZM15.9156 11.698H5.95453V13.198H15.9156V11.698Z" fill="#23004C"/>
<path d="M5.96907 6.302C6.38329 6.302 6.71907 5.96622 6.71907 5.552C6.71907 5.13779 6.38329 4.802 5.96907 4.802V6.302ZM5.95453 4.802C5.54032 4.802 5.20453 5.13779 5.20453 5.552C5.20453 5.96622 5.54032 6.302 5.95453 6.302V4.802ZM5.96907 4.802H5.95453V6.302H5.96907V4.802Z" fill="#23004C"/>
</svg>
