<?xml version="1.0" encoding="iso-8859-1"?>
<!-- Generator: Adobe Illustrator 19.0.0, SVG Export Plug-In . SVG Version: 6.00 Build 0)  -->
<svg version="1.1" id="Layer_1" xmlns="http://www.w3.org/2000/svg" xmlns:xlink="http://www.w3.org/1999/xlink" x="0px" y="0px"
	 viewBox="0 0 496.464 496.464" style="enable-background:new 0 0 496.464 496.464;" xml:space="preserve">
<g>
	<g>
		<g>
			<path d="M456.232,160.464h-56v-24h-152V95.2c19.384-3.472,34.768-18.568,38.6-37.824l65.744,12.368
				c-3.448,15.568,0.76,32.504,12.848,44.6c9.408,9.408,21.76,14.104,34.104,14.104c12.352,0,24.704-4.696,34.112-14.104
				c9.12-9.112,14.136-21.224,14.136-34.112s-5.016-25-14.136-34.112c-18.816-18.808-49.4-18.824-68.208,0
				c-2.616,2.616-4.784,5.504-6.672,8.512l-71.528-13.456C283.904,17.936,263.92,0,239.776,0c-24.176,0-44.184,17.984-47.472,41.272
				l-71.912,13.52c-1.88-2.976-4.072-5.784-6.624-8.336C104.744,37.432,92.752,32.464,80,32.464
				c-12.768,0-24.76,4.968-33.776,13.992C37.2,55.472,32.232,67.464,32.232,80.232c0,12.76,4.968,24.752,13.992,33.776
				C55.24,123.032,67.232,128,80,128c12.76,0,24.752-4.968,33.776-13.992s13.992-21.016,13.992-33.776
				c0-3.52-0.416-6.976-1.152-10.336l66.096-12.44c3.92,19.52,19.728,34.744,39.52,37.888v41.12h-152v24h-40
				c-22.056,0-40,17.944-40,40v256c0,22.056,17.944,40,40,40h416c22.056,0,40-17.944,40-40v-256
				C496.232,178.408,478.288,160.464,456.232,160.464z M376.736,57.44c6.28-6.288,14.536-9.432,22.784-9.432
				c8.256,0,16.512,3.144,22.8,9.424c6.096,6.088,9.448,14.184,9.448,22.8s-3.352,16.704-9.448,22.8
				c-12.568,12.552-33.016,12.568-45.584,0C364.176,90.464,364.176,70.008,376.736,57.44z M102.456,102.688c-12,12-32.92,12-44.92,0
				c-6-6-9.304-13.976-9.304-22.456c0-8.48,3.304-16.464,9.304-22.464S71.512,48.464,80,48.464s16.464,3.304,22.464,9.304
				s9.304,13.976,9.304,22.464C111.768,88.72,108.456,96.688,102.456,102.688z M207.76,47.992c0-17.648,14.352-32,32-32
				s32,14.352,32,32c0,17.648-14.352,32-32,32S207.76,65.64,207.76,47.992z M128.232,152.464h104v32h16v-32h104v176h-104v-128h-16
				v128h-104V152.464z M96.232,152.464h16v192h256v-192h16v208h-128v8c0,8.824-7.176,16-16,16c-8.824,0-16-7.176-16-16v-8h-128
				V152.464z M48.232,480.464h-8c-13.232,0-24-10.768-24-24v-256c0-13.232,10.768-24,24-24h8V480.464z M416.232,480.464h-352v-304
				h16v200h129.016c3.552,13.792,16.104,24,30.984,24s27.432-10.208,30.984-24h129.016v-200h16V480.464z M480.232,456.464
				c0,13.232-10.768,24-24,24h-24v-304h24c13.232,0,24,10.768,24,24V456.464z"/>
			<rect x="448.232" y="296.464" width="16" height="64"/>
			<polygon points="160.232,227.128 177.096,204.64 193.472,221.016 214.888,188.904 201.576,180.024 190.992,195.912 
				175.368,180.288 160.232,200.464 160.232,168.464 144.232,168.464 144.232,248.464 216.232,248.464 216.232,232.464 
				160.232,232.464 			"/>
			<rect x="144.232" y="264.464" width="72" height="16"/>
			<rect x="144.232" y="296.464" width="72" height="16"/>
			<rect x="264.232" y="168.464" width="72" height="16"/>
			<rect x="264.232" y="200.464" width="72" height="16"/>
			<rect x="264.232" y="232.464" width="72" height="16"/>
			<path d="M336.232,264.464h-72v48h72V264.464z M320.232,296.464h-40v-16h40V296.464z"/>
			<path d="M112.232,400.464c-17.648,0-32,14.352-32,32s14.352,32,32,32s32-14.352,32-32S129.88,400.464,112.232,400.464z
				 M112.232,448.464c-8.824,0-16-7.176-16-16c0-8.824,7.176-16,16-16c8.824,0,16,7.176,16,16
				C128.232,441.288,121.056,448.464,112.232,448.464z"/>
			<path d="M208.232,432.464c0,17.648,14.352,32,32,32s32-14.352,32-32s-14.352-32-32-32S208.232,414.816,208.232,432.464z
				 M240.232,416.464c8.824,0,16,7.176,16,16c0,8.824-7.176,16-16,16c-8.824,0-16-7.176-16-16
				C224.232,423.64,231.408,416.464,240.232,416.464z"/>
			<path d="M368.232,400.464c-17.648,0-32,14.352-32,32s14.352,32,32,32s32-14.352,32-32S385.88,400.464,368.232,400.464z
				 M368.232,448.464c-8.824,0-16-7.176-16-16c0-8.824,7.176-16,16-16c8.824,0,16,7.176,16,16
				C384.232,441.288,377.056,448.464,368.232,448.464z"/>
			<rect x="296.232" y="424.464" width="16" height="16"/>
			<rect x="168.232" y="424.464" width="16" height="16"/>
		</g>
	</g>
</g>
<g>
</g>
<g>
</g>
<g>
</g>
<g>
</g>
<g>
</g>
<g>
</g>
<g>
</g>
<g>
</g>
<g>
</g>
<g>
</g>
<g>
</g>
<g>
</g>
<g>
</g>
<g>
</g>
<g>
</g>
</svg>
