<svg width="16" height="18" viewBox="0 0 16 18" fill="none" xmlns="http://www.w3.org/2000/svg">
<path d="M4.55383 4.28864C4.53885 4.74119 4.61317 5.19227 4.77252 5.6161C4.93188 6.03994 5.17315 6.42824 5.48257 6.75883C5.79199 7.08943 6.16349 7.35584 6.57587 7.54286C6.98825 7.72988 7.43343 7.83384 7.88599 7.84881C8.33854 7.86378 8.78962 7.78947 9.21346 7.63011C9.63729 7.47076 10.0256 7.22949 10.3562 6.92007C10.6868 6.61065 10.9532 6.23914 11.1402 5.82676C11.3272 5.41438 11.4312 4.96921 11.4462 4.51665C11.4611 4.06409 11.3868 3.61302 11.2275 3.18918C11.0681 2.76534 10.8268 2.37704 10.5174 2.04645C10.208 1.71586 9.83649 1.44945 9.42411 1.26243C9.01173 1.07541 8.56656 0.971447 8.114 0.956475C7.66144 0.941504 7.21037 1.01582 6.78653 1.17517C6.36269 1.33452 5.97439 1.5758 5.6438 1.88522C5.31321 2.19464 5.0468 2.56614 4.85978 2.97852C4.67276 3.3909 4.5688 3.83608 4.55383 4.28864Z" stroke="#23004C" stroke-width="1.5" stroke-linecap="round" stroke-linejoin="round"/>
<path d="M14.8961 17.0454C14.3311 15.6846 13.3744 14.5214 12.1469 13.7031C10.9194 12.8848 9.47628 12.448 7.99999 12.448C6.52369 12.448 5.08055 12.8848 3.85305 13.7031C2.62555 14.5214 1.66884 15.6846 1.10388 17.0454" stroke="#23004C" stroke-width="1.5" stroke-linecap="round" stroke-linejoin="round"/>
</svg>
